<?xml version="1.0"?>
<svg width="460.749" height="300" xmlns="http://www.w3.org/2000/svg" xmlns:svg="http://www.w3.org/2000/svg" preserveAspectRatio="xMidYMid meet" version="1.0">
 <metadata>Created by Brian Rosero.</metadata>
 <g class="layer">
  <title>Layer 1</title>
  <g id="svg_3">
   <!-- Grupo principal -->
   <g fill="#004A8F" id="main-group" transform="translate(0 300) scale(0.1 -0.1)">
    <!-- Path: Contorno principal -->
    <path d="m1315,2221c-99,-43 -157,-151 -135,-250c12,-56 920,-1648 968,-1698c36,-38 104,-68 152,-68c48,0 116,30 152,68c29,30 868,1483 948,1641c58,115 4,257 -117,308c-47,19 -1923,19 -1968,-1zm1983,-63c67,-44 97,-138 66,-211c-7,-18 -121,-221 -254,-452c-132,-231 -240,-422 -240,-425c0,-3 -15,-29 -34,-58c-28,-44 -83,-139 -313,-547c-86,-151 -106,-176 -158,-196c-51,-19 -114,-13 -161,15c-25,15 -74,85 -130,186c-6,11 -21,38 -34,60c-12,22 -90,159 -173,305c-82,146 -160,281 -172,300c-12,19 -33,55 -47,80c-14,25 -114,201 -222,392c-176,310 -198,353 -199,396c-3,66 25,122 76,155l41,27l956,0l956,0l42,-27z" id="outline"/>
   </g>
   <!-- Path: Líneas horizontales -->
   <g fill="#004A8F" id="lines" transform="translate(0 300) scale(0.1 -0.1)">
    <path d="m1473,1668c2,-5 40,-71 84,-148c44,-77 95,-167 113,-200c57,-104 71,-127 147,-257c41,-71 77,-128 79,-128c6,0 -67,135 -118,218c-21,34 -38,64 -38,67c0,2 -29,54 -65,115c-36,61 -77,132 -91,158c-49,87 -106,182 -111,182c-2,0 -2,-3 0,-7z" id="line-1"/>
    <path d="m1111,-435c2,-5 40,-71 84,-148c44,-77 95,-167 113,-200c57,-104 71,-127 147,-257c41,-71 77,-128 79,-128c6,0 -67,135 -118,218c-21,34 -38,64 -38,67c0,2 -29,54 -65,115c-36,61 -77,132 -91,158c-49,87 -106,182 -111,182c-2,0 -2,-3 0,-7z" id="line-2" transform="rotate(119 1500 685)"/>
    <path d="m2943,1068c2,-5 40,-71 84,-148c44,-77 95,-167 113,-200c57,-104 71,-127 147,-257c41,-71 77,-128 79,-128c6,0 -67,135 -118,218c-21,34 -38,64 -38,67c0,2 -29,54 -65,115c-36,61 -77,132 -91,158c-49,87 -106,182 -111,182c-2,0 -2,-3 0,-7z" id="line-3" transform="rotate(60 1500 685)"/>
   </g>
   <!-- Grupo: Elementos de la izquierda -->
   <g fill="#004A8F" id="svg_1" transform="translate(0 300) scale(0.1 -0.1)">
    <path d="m1729,2085c-323,-5 -348,-6 -368,-24c-25,-23 -27,-64 -5,-92c15,-19 16,-19 9,1c-17,48 -16,55 9,79l25,26l296,0c187,0 295,-4 295,-10c0,-5 -17,-20 -37,-33c-114,-72 -213,-203 -257,-336c-14,-45 -26,-94 -26,-109c0,-41 -12,-102 -19,-102c-7,0 -73,108 -126,205c-15,28 -32,55 -37,60c-15,14 16,-45 80,-155c31,-52 68,-121 84,-152c15,-32 29,-58 31,-58c1,0 1,44 -1,98c-8,181 53,331 189,464c55,54 110,91 171,115c46,17 72,35 48,31c-8,-1 -171,-5 -361,-8z" id="left-element-1"/>
    <path d="m2508,2084c4,-3 27,-14 51,-23c98,-38 207,-132 267,-232c77,-128 98,-206 92,-344c-2,-55 -2,-100 -1,-100c2,0 23,39 48,88c25,48 59,111 76,140c17,28 29,52 26,52c-2,0 -26,-37 -53,-82c-26,-46 -53,-86 -58,-90c-7,-5 -15,19 -23,69c-24,157 -79,275 -173,373c-36,37 -84,79 -107,94c-24,14 -43,31 -43,36c0,11 558,14 596,4c34,-9 49,-46 35,-86c-10,-30 -9,-31 4,-14c21,28 19,61 -7,90l-23,26l-357,2c-196,2 -354,0 -350,-3z" id="left-element-2"/>
    <path d="m610,1554c4,-3 27,-14 51,-23c98,-38 207,-132 267,-232c77,-128 98,-206 92,-344c-2,-55 -2,-100 -1,-100c2,0 23,39 48,88c25,48 59,111 76,140c17,28 29,52 26,52c-2,0 -26,-37 -53,-82c-26,-46 -53,-86 -58,-90c-7,-5 -15,19 -23,69c-24,157 -79,275 -173,373c-36,37 -84,79 -107,94c-24,14 -43,31 -43,36c0,11 558,14 596,4c34,-9 49,-46 35,-86c-10,-30 -9,-31 4,-14c21,28 19,61 -7,90l-23,26l-357,2c-196,2 -354,0 -350,-3z" id="left-element-3" transform="rotate(-120 1500 685)"/>
   </g>
   <!-- Grupo: Elementos centrales -->
   <g id="svg_2" transform="translate(0 300) scale(0.1 -0.1)">
    <path d="m2219,2065c-132,-21 -231,-71 -329,-169c-108,-109 -160,-237 -160,-399c0,-159 55,-294 165,-404c112,-112 246,-168 405,-168c282,0 516,198 565,478c40,228 -72,472 -272,589c-104,61 -258,91 -374,73zm226,-32c159,-41 318,-185 374,-340c43,-118 49,-192 26,-303c-55,-263 -299,-460 -557,-450c-147,6 -275,61 -377,163c-175,176 -215,418 -106,638c100,203 307,323 530,307c39,-2 88,-9 110,-15z" fill="#004A8F" id="center-circle1"/>
    <path d="m2205,1973c-118,-22 -245,-111 -316,-220c-53,-83 -72,-164 -67,-286c3,-91 7,-106 42,-178c86,-174 245,-274 436,-274c192,0 352,102 436,276c34,71 38,88 42,179c3,76 0,116 -12,158c-70,242 -314,392 -561,345zm230,-48c235,-81 361,-310 300,-545c-60,-231 -309,-380 -538,-320c-84,22 -143,53 -200,105c-300,276 -108,777 299,779c56,1 99,-5 139,-19z" fill="#004A8F" id="center-circle2"/>
    <path d="m2163,1886c-168,-62 -273,-212 -273,-391c0,-86 21,-154 70,-227c161,-241 519,-241 681,1c49,73 69,140 69,228c0,162 -90,303 -240,375c-75,37 -228,43 -307,14zm270,-27c83,-29 176,-115 215,-198c90,-191 10,-414 -183,-511c-55,-28 -68,-30 -165,-30c-94,0 -111,3 -161,28c-70,34 -145,106 -182,176c-33,60 -47,157 -34,240c22,147 158,286 304,311c57,9 154,2 206,-16z" fill="#004A8F" id="center-circle3"/>
    <path fill="#498f00" id="path885" stroke-linecap="round" stroke-linejoin="round" stroke-width="3.7" transform="matrix(1.24543 -0.00286123 0.00286123 1.24543 764.165 2272.74)" d="m1418.47,-438.84c-24.59,24.59 -40.99,16.85 -71.96,32.64c-30.98,15.78 -34.37,33.59 -68.71,39.03c-34.33,5.44 -43.06,-10.45 -77.4,-15.89c-34.34,-5.44 -47.54,6.98 -78.52,-8.8c-30.98,-15.79 -28.69,-33.77 -53.28,-58.36c-24.58,-24.58 -42.57,-22.3 -58.35,-53.27c-15.79,-30.98 -3.36,-44.19 -8.8,-78.53c-5.44,-34.34 -21.34,-43.06 -15.9,-77.4c5.44,-34.34 23.25,-37.72 39.04,-68.7c15.78,-30.98 8.05,-47.38 32.63,-71.96c24.59,-24.58 40.99,-16.85 71.96,-32.64c30.98,-15.78 34.37,-33.59 68.71,-39.03c34.33,-5.44 43.06,10.45 77.4,15.89c34.34,5.44 47.54,-6.98 78.52,8.8c30.98,15.79 28.69,33.77 53.28,58.36c24.58,24.58 42.57,22.3 58.35,53.27c15.79,30.98 3.36,44.19 8.8,78.53c5.44,34.34 21.34,43.06 15.9,77.4c-5.44,34.34 -23.25,37.72 -39.04,68.7c-15.78,30.98 -8.05,47.38 -32.63,71.96z" />--&gt;
    <path fill="#004A8F" id="center-circle4" d="m2202,1699c-64,-32 -97,-70 -117,-136c-19,-64 -19,-72 0,-134c27,-93 112,-154 215,-154c105,0 188,61 217,159c30,106 -21,220 -120,267c-69,32 -129,31 -195,-2zm164,1c55,-16 110,-63 130,-112c8,-18 14,-61 14,-97c0,-55 -4,-70 -32,-112c-42,-62 -101,-94 -175,-94c-129,0 -215,84 -214,210c0,32 6,73 14,92c29,66 116,125 188,127c14,1 48,-6 75,-14z" />
    <!-- Path: Elementos adicionales --></g>
  </g>
 </g>
</svg>